<?xml version="1.0" encoding="UTF-8" standalone="no"?><!DOCTYPE svg PUBLIC "-//W3C//DTD SVG 1.1//EN" "http://www.w3.org/Graphics/SVG/1.1/DTD/svg11.dtd"><svg width="100%" height="100%" viewBox="0 0 404 165" version="1.1" xmlns="http://www.w3.org/2000/svg" xmlns:xlink="http://www.w3.org/1999/xlink" xml:space="preserve" xmlns:serif="http://www.serif.com/" style="fill-rule:evenodd;clip-rule:evenodd;stroke-linecap:round;stroke-linejoin:round;stroke-miterlimit:1.5;"><g><path d="M380.136,59.912c0,-19.586 -15.878,-35.464 -35.465,-35.464l-343.171,0l0,99.613c0,10.374 4.122,20.324 11.457,27.659c7.336,7.336 17.285,11.457 27.659,11.457l339.52,0l0,-103.265Z" style="fill:#e7e8e9;fill-opacity:0;stroke:#0036ff;stroke-width:3px;"/><path d="M402.04,36.965c0,-19.587 -15.878,-35.465 -35.464,-35.465l-343.171,0l0,99.614c0,10.374 4.121,20.323 11.457,27.658c7.335,7.336 17.284,11.457 27.658,11.457l339.52,0l0,-103.264Z" style="fill:#e7e8e9;fill-opacity:0;stroke:#ff0015;stroke-width:3px;"/><g><g><path d="M44.771,54.285l0,10.557l7.431,0l0,2.949l-7.431,0l0,19.168c0,3.48 1.474,5.191 4.364,5.191c1.298,0 2.536,-0.118 3.834,-0.413l-0.236,3.008c-1.239,0.177 -2.654,0.295 -4.188,0.295c-4.954,0 -7.431,-2.419 -7.431,-7.373l0,-19.876l-5.072,0l0,-2.949l5.072,0l0,-9.731l3.657,-0.826Z" style="fill:#0036ff;fill-rule:nonzero;"/></g><g><path d="M73.791,64.135l-0.294,3.656c-2.065,0 -3.952,0.885 -5.721,2.654c-1.652,1.652 -2.949,3.893 -3.775,6.606l0,17.281l-3.598,0l0,-29.49l3.48,0l0,7.668c1.18,-2.949 2.713,-5.132 4.659,-6.606c1.652,-1.18 3.362,-1.769 5.249,-1.769Z" style="fill:#0036ff;fill-rule:nonzero;"/></g><g><path d="M81.032,71.684c1.769,-5.013 5.603,-7.549 11.619,-7.549c6.959,0 10.439,3.243 10.439,9.79l0,10.38c0,3.952 0.236,7.255 0.708,10.027l-3.421,0c-0.236,-1.121 -0.472,-2.831 -0.649,-5.19c-2.595,3.951 -6.134,5.898 -10.675,5.898c-3.126,0 -5.485,-0.885 -7.136,-2.713c-1.416,-1.475 -2.124,-3.421 -2.124,-5.839c0,-5.308 3.303,-8.552 9.968,-9.673c2.595,-0.413 5.839,-0.767 9.79,-0.944l0,-1.592c0,-2.772 -0.648,-4.718 -1.828,-5.839c-1.121,-0.944 -2.831,-1.415 -5.131,-1.415c-4.247,0 -6.96,1.946 -8.139,5.897l-3.421,-1.238Zm18.519,6.9c-2.949,0.059 -5.957,0.354 -9.023,0.944c-4.719,0.944 -7.078,3.244 -7.078,6.783c0,1.946 0.59,3.42 1.828,4.423c1.121,0.944 2.596,1.416 4.424,1.416c3.951,0 7.254,-2.124 9.849,-6.37l0,-7.196Z" style="fill:#0036ff;fill-rule:nonzero;"/></g><g><path d="M118.313,64.842l0,5.485c3.303,-4.128 6.901,-6.192 10.793,-6.192c2.654,0 4.718,0.825 6.252,2.477c1.356,1.474 2.005,3.421 2.005,5.839l0,21.881l-3.715,0l0,-20.348c0,-4.364 -1.829,-6.547 -5.486,-6.547c-3.42,0 -6.664,2.065 -9.731,6.134l0,20.761l-3.657,0l0,-29.49l3.539,0Z" style="fill:#0036ff;fill-rule:nonzero;"/></g><g><path d="M168.508,71.094l-3.538,1.239c-1.121,-3.539 -3.48,-5.308 -7.196,-5.308c-2.241,0 -3.951,0.471 -5.131,1.474c-1.061,0.826 -1.592,1.887 -1.592,3.244c0,1.651 0.531,2.831 1.592,3.657c0.885,0.707 2.536,1.297 4.895,1.828l2.36,0.531c3.656,0.825 6.133,1.946 7.549,3.303c1.238,1.297 1.828,3.066 1.828,5.308c0,2.713 -1.003,4.836 -3.126,6.428c-1.946,1.534 -4.659,2.242 -8.08,2.242c-5.898,0 -9.79,-2.36 -11.619,-7.137l3.539,-1.356c1.298,3.774 4.011,5.603 8.139,5.603c2.772,0 4.777,-0.59 6.075,-1.829c1.003,-1.002 1.474,-2.182 1.474,-3.597c0,-1.829 -0.471,-3.126 -1.533,-3.952c-1.003,-0.708 -2.831,-1.416 -5.485,-2.005l-2.359,-0.531c-3.48,-0.826 -5.839,-1.887 -7.137,-3.362c-1.061,-1.18 -1.592,-2.772 -1.592,-4.836c0,-2.477 1.003,-4.424 2.89,-5.898c1.828,-1.357 4.305,-2.005 7.372,-2.005c5.308,0 8.906,2.3 10.675,6.959Z" style="fill:#0036ff;fill-rule:nonzero;"/></g><g><path d="M182.533,64.842l0,4.719c2.359,-3.598 5.367,-5.426 9.083,-5.426c3.715,0 6.605,1.533 8.787,4.541c1.947,2.772 2.89,6.37 2.89,10.793c0,5.072 -1.297,9.083 -3.892,11.973c-2.182,2.418 -4.895,3.598 -8.08,3.598c-3.657,0 -6.547,-1.77 -8.67,-5.368l0,15.335l-3.657,0l0,-40.165l3.539,0Zm0.118,8.375l0,12.976c2.241,3.833 4.954,5.721 8.139,5.721c2.772,0 4.954,-1.18 6.547,-3.657c1.474,-2.182 2.182,-5.131 2.182,-8.729c0,-4.187 -0.885,-7.372 -2.654,-9.613c-1.475,-1.829 -3.362,-2.713 -5.721,-2.713c-3.48,0 -6.311,2.005 -8.493,6.015Z" style="fill:#ff0300;fill-rule:nonzero;"/></g><g><path d="M212.381,71.684c1.769,-5.013 5.603,-7.549 11.618,-7.549c6.96,0 10.44,3.243 10.44,9.79l0,10.38c0,3.952 0.236,7.255 0.707,10.027l-3.42,0c-0.236,-1.121 -0.472,-2.831 -0.649,-5.19c-2.595,3.951 -6.134,5.898 -10.675,5.898c-3.126,0 -5.485,-0.885 -7.137,-2.713c-1.415,-1.475 -2.123,-3.421 -2.123,-5.839c0,-5.308 3.303,-8.552 9.967,-9.673c2.596,-0.413 5.839,-0.767 9.791,-0.944l0,-1.592c0,-2.772 -0.649,-4.718 -1.828,-5.839c-1.121,-0.944 -2.831,-1.415 -5.132,-1.415c-4.246,0 -6.959,1.946 -8.139,5.897l-3.42,-1.238Zm18.519,6.9c-2.949,0.059 -5.957,0.354 -9.024,0.944c-4.718,0.944 -7.077,3.244 -7.077,6.783c0,1.946 0.59,3.42 1.828,4.423c1.121,0.944 2.595,1.416 4.424,1.416c3.951,0 7.254,-2.124 9.849,-6.37l0,-7.196Z" style="fill:#ff0300;fill-rule:nonzero;"/></g><g><path d="M259.511,64.135l-0.295,3.656c-2.065,0 -3.952,0.885 -5.721,2.654c-1.652,1.652 -2.949,3.893 -3.775,6.606l0,17.281l-3.598,0l0,-29.49l3.48,0l0,7.668c1.18,-2.949 2.713,-5.132 4.659,-6.606c1.652,-1.18 3.362,-1.769 5.25,-1.769Z" style="fill:#ff0300;fill-rule:nonzero;"/></g><g><path d="M272.709,54.285l0,10.557l7.431,0l0,2.949l-7.431,0l0,19.168c0,3.48 1.474,5.191 4.364,5.191c1.298,0 2.536,-0.118 3.834,-0.413l-0.236,3.008c-1.239,0.177 -2.654,0.295 -4.188,0.295c-4.954,0 -7.431,-2.419 -7.431,-7.373l0,-19.876l-5.072,0l0,-2.949l5.072,0l0,-9.731l3.657,-0.826Z" style="fill:#ff0300;fill-rule:nonzero;"/></g><g><path d="M291.881,64.842l0,5.485c3.303,-4.128 6.9,-6.192 10.793,-6.192c2.654,0 4.718,0.825 6.252,2.477c1.356,1.474 2.005,3.421 2.005,5.839l0,21.881l-3.716,0l0,-20.348c0,-4.364 -1.828,-6.547 -5.485,-6.547c-3.42,0 -6.664,2.065 -9.731,6.134l0,20.761l-3.657,0l0,-29.49l3.539,0Z" style="fill:#ff0300;fill-rule:nonzero;"/></g><g><path d="M345.675,79.882l-21.409,0c0,4.128 1.002,7.313 3.008,9.555c1.651,1.828 3.774,2.713 6.369,2.713c4.247,0 7.019,-2.065 8.375,-6.311l3.421,1.297c-2.064,5.249 -6.016,7.904 -11.855,7.904c-4.128,0 -7.372,-1.534 -9.731,-4.66c-2.123,-2.772 -3.185,-6.37 -3.185,-10.734c0,-5.013 1.357,-8.965 4.07,-11.855c2.241,-2.418 5.131,-3.656 8.552,-3.656c3.892,0 6.959,1.474 9.259,4.482c2.064,2.713 3.126,6.134 3.126,10.321l0,0.944Zm-3.657,-2.772c-0.294,-3.421 -1.297,-6.016 -3.007,-7.785c-1.475,-1.534 -3.362,-2.241 -5.662,-2.241c-2.654,0 -4.837,1.002 -6.488,3.066c-1.416,1.77 -2.3,4.129 -2.477,6.96l17.634,0Z" style="fill:#ff0300;fill-rule:nonzero;"/></g><g><path d="M368.857,64.135l-0.294,3.656c-2.065,0 -3.952,0.885 -5.721,2.654c-1.652,1.652 -2.949,3.893 -3.775,6.606l0,17.281l-3.598,0l0,-29.49l3.48,0l0,7.668c1.18,-2.949 2.713,-5.132 4.659,-6.606c1.652,-1.18 3.362,-1.769 5.249,-1.769Z" style="fill:#ff0300;fill-rule:nonzero;"/></g></g></g></svg>